<svg xmlns="http://www.w3.org/2000/svg" width="34.558" height="38.748" viewBox="0 0 34.558 38.748">
  <g id="noun-person-4126791" transform="translate(-165.198 -72.802)">
    <path id="Tracé_1563" data-name="Tracé 1563" d="M263.7,90.6a8.9,8.9,0,1,1,8.9-8.9A8.911,8.911,0,0,1,263.7,90.6Zm0-14.661a5.76,5.76,0,1,0,5.76,5.76A5.767,5.767,0,0,0,263.7,75.943Z" transform="translate(-81.225)" fill="#2b9dfc"/>
    <path id="Tracé_1564" data-name="Tracé 1564" d="M198.186,304.456H166.769a1.571,1.571,0,0,1-1.571-1.565,17.228,17.228,0,0,1,17.227-17.284h.055a17.3,17.3,0,0,1,17.276,17.279,1.571,1.571,0,0,1-1.571,1.571Zm-29.762-3.141h28.1a14.158,14.158,0,0,0-14.051-12.567c-.019,0-.035,0-.053,0a14.081,14.081,0,0,0-14,12.567Z" transform="translate(0 -192.907)" fill="#2b9dfc"/>
  </g>
</svg>
