<svg xmlns="http://www.w3.org/2000/svg" width="40.413" height="38.729" viewBox="0 0 40.413 38.729">
  <g id="noun-contract-1560864" transform="translate(-81.202 -22.396)">
    <path id="Tracé_1565" data-name="Tracé 1565" d="M119.931,49.338H113.2V27.448a5.052,5.052,0,0,0-5.052-5.052H86.254A5.052,5.052,0,0,0,81.2,27.448V52.706a8.42,8.42,0,0,0,8.419,8.419H113.2a8.42,8.42,0,0,0,8.419-8.419V51.022a1.684,1.684,0,0,0-1.684-1.684ZM84.57,52.706V27.448a1.684,1.684,0,0,1,1.684-1.684h21.89a1.684,1.684,0,0,1,1.684,1.684v21.89H96.357a1.684,1.684,0,0,0-1.684,1.684v1.684a5.052,5.052,0,0,1-10.1,0ZM113.2,57.758H96.315a8.33,8.33,0,0,0,1.726-5.052h20.206a5.052,5.052,0,0,1-5.052,5.052Z" transform="translate(0 0)" fill="#2b9dfc"/>
    <path id="Tracé_1566" data-name="Tracé 1566" d="M172.486,115.368h15.155a1.684,1.684,0,0,0,0-3.368H172.486a1.684,1.684,0,0,0,0,3.368Z" transform="translate(-82.864 -82.868)" fill="#2b9dfc"/>
    <path id="Tracé_1567" data-name="Tracé 1567" d="M172.486,204.971h15.155a1.684,1.684,0,1,0,0-3.367H172.486a1.684,1.684,0,1,0,0,3.367Z" transform="translate(-82.864 -165.736)" fill="#2b9dfc"/>
    <path id="Tracé_1568" data-name="Tracé 1568" d="M187.641,294.568a1.684,1.684,0,0,0,0-3.368H172.486a1.684,1.684,0,0,0,0,3.368Z" transform="translate(-82.864 -248.597)" fill="#2b9dfc"/>
  </g>
</svg>
