<svg xmlns="http://www.w3.org/2000/svg" width="37.352" height="37.352" viewBox="0 0 37.352 37.352">
  <g id="noun-time-1911064" transform="translate(-170.8 -100.8)">
    <path id="Tracé_1509" data-name="Tracé 1509" d="M189.476,100.8A18.676,18.676,0,1,1,170.8,119.476,18.7,18.7,0,0,1,189.476,100.8Zm0,3.5a15.174,15.174,0,1,0,15.174,15.174A15.148,15.148,0,0,0,189.476,104.3Zm0,3.5a1.751,1.751,0,0,1,1.751,1.751v9.921a1.748,1.748,0,0,1-.875,1.514l-7.587,4.377a1.749,1.749,0,1,1-1.751-3.028l6.711-3.867v-8.918a1.751,1.751,0,0,1,1.751-1.751Z" fill="#2b9dfc"/>
  </g>
</svg>
