<svg xmlns="http://www.w3.org/2000/svg" width="37.078" height="40.352" viewBox="0 0 37.078 40.352">
  <g id="noun-option-4763322" transform="translate(-139.989 -51.802)">
    <path id="Tracé_1510" data-name="Tracé 1510" d="M158.529,92.154a7.724,7.724,0,0,1-3.862-1.035L143.852,84.94a7.725,7.725,0,0,1-3.862-6.813V65.768a7.725,7.725,0,0,1,3.862-6.751l10.814-6.179a7.725,7.725,0,0,1,7.724,0L173.2,59.017a7.725,7.725,0,0,1,3.862,6.751V78.127a7.724,7.724,0,0,1-3.862,6.689L162.391,91a7.722,7.722,0,0,1-3.862,1.159Zm0-37.324a4.632,4.632,0,0,0-2.317.618L145.4,61.627a4.634,4.634,0,0,0-2.317,4.14V78.126a4.633,4.633,0,0,0,2.317,4.017l10.814,6.179a4.634,4.634,0,0,0,4.635,0l10.814-6.179a4.633,4.633,0,0,0,2.317-4.017V65.767a4.633,4.633,0,0,0-2.317-4.017l-10.814-6.179a4.634,4.634,0,0,0-2.317-.741Z" fill="#2b9dfc"/>
    <path id="Tracé_1511" data-name="Tracé 1511" d="M254.269,193.538a9.269,9.269,0,1,1,6.554-2.715A9.269,9.269,0,0,1,254.269,193.538Zm0-15.449a6.18,6.18,0,1,0,4.369,1.81A6.178,6.178,0,0,0,254.269,178.09Z" transform="translate(-95.741 -112.322)" fill="#2b9dfc"/>
  </g>
</svg>
