<svg xmlns="http://www.w3.org/2000/svg" width="291.965" height="105.197" viewBox="0 0 291.965 105.197">
  <g id="_61017ce461144edf78f7d591_Unkle-bleu-fond-transparent-safe-zone" data-name="61017ce461144edf78f7d591_Unkle-bleu-fond-transparent-safe-zone" transform="translate(-79.57 -79.389)">
    <path id="Tracé_1500" data-name="Tracé 1500" d="M136.523,102.24,110.815,80.188a3.194,3.194,0,0,0-4.227,0L80.881,102.24a3.882,3.882,0,0,0-1.311,2.946v33.148A3.6,3.6,0,0,0,83,142.077H88.57v20.058c0,12.38,9.736,22.45,21.7,22.45s21.7-10.07,21.7-22.45a5.2,5.2,0,0,0-10.4,0c0,6.656-5.074,12.072-11.314,12.072s-11.318-5.416-11.318-12.072V142.077h35.473a3.6,3.6,0,0,0,3.425-3.744V105.186A3.882,3.882,0,0,0,136.523,102.24ZM122.78,119.327c0,9.658-5.4,15.2-14.809,15.2-9.286,0-14.631-5.46-14.631-14.98V105.178a4.754,4.754,0,1,1,9.505,0v14.208c0,4.086,1.753,6.177,5.2,6.177s5.2-2.006,5.2-5.943V105.178a4.754,4.754,0,1,1,9.505,0Z" transform="translate(0 0)" fill="#2b9dfe"/>
    <g id="Groupe_24" data-name="Groupe 24" transform="translate(157.168 99.247)">
      <path id="Tracé_1501" data-name="Tracé 1501" d="M288.48,170.78V145.236a5.98,5.98,0,1,1,11.96,0v25.232c0,8.851,4.424,13.435,11.723,13.435s11.723-4.428,11.723-13.045v-25.63a5.98,5.98,0,1,1,11.957,0v25.158c0,16.459-9.238,24.515-23.836,24.515S288.48,186.774,288.48,170.78Z" transform="translate(-288.48 -136.778)" fill="#2b9dfe"/>
      <path id="Tracé_1502" data-name="Tracé 1502" d="M445.457,179.162a5.9,5.9,0,1,1,11.8,0v.464c2.719-3.492,6.214-6.686,12.191-6.686,8.915,0,14.133,5.9,14.133,15.452V209.9a5.9,5.9,0,1,1-11.8,0v-17.77c0-5.572-2.637-8.465-7.143-8.465s-7.377,2.875-7.377,8.465V209.91a5.9,5.9,0,0,1-11.8,0Z" transform="translate(-387.148 -158.049)" fill="#2b9dfe"/>
      <path id="Tracé_1503" data-name="Tracé 1503" d="M575.677,138.9a5.9,5.9,0,1,1,11.8,0V164.68L602.231,150.7c1.709-1.631,3.105-2.641,5.2-2.641a5.166,5.166,0,0,1,5.2,5.282c0,2.017-1.088,3.57-2.719,5.122l-9.316,8,11.1,14.984a6.223,6.223,0,0,1,1.486,3.8,5.352,5.352,0,0,1-5.512,5.356,5.626,5.626,0,0,1-5.122-2.715l-10.337-14.211-4.736,4.272v6.757a5.9,5.9,0,0,1-11.8,0Z" transform="translate(-468.999 -132.851)" fill="#2b9dfe"/>
      <path id="Tracé_1504" data-name="Tracé 1504" d="M700.047,138.9a5.9,5.9,0,1,1,11.8,0v45.81a5.9,5.9,0,0,1-11.8,0Z" transform="translate(-547.172 -132.851)" fill="#2b9dfe"/>
      <path id="Tracé_1505" data-name="Tracé 1505" d="M778.017,216.3c-12.5,0-21.737-8.773-21.737-21.506v-.156c0-11.886,8.462-21.663,20.574-21.663,13.9,0,20.032,11.414,20.032,20.032a5.383,5.383,0,0,1-5.512,5.668H768c1.163,5.356,4.892,8.172,10.17,8.172a13.62,13.62,0,0,0,8.387-2.8,4.41,4.41,0,0,1,2.871-.932,4.51,4.51,0,0,1,4.58,4.658,4.636,4.636,0,0,1-1.553,3.5A21.644,21.644,0,0,1,778.017,216.3Zm7.611-25c-.7-5.278-3.8-8.852-8.773-8.852-4.892,0-8.075,3.5-9.007,8.852Z" transform="translate(-582.519 -158.068)" fill="#2b9dfe"/>
    </g>
  </g>
</svg>
